<svg xmlns="http://www.w3.org/2000/svg" viewBox="0 0 202.99 205.96"><defs><style>.cls-1{fill:#fff;fill-rule:evenodd;}</style></defs><g id="Layer_2" data-name="Layer 2"><g id="Layer_1-2" data-name="Layer 1"><path class="cls-1" d="M199.69,76.94a102.92,102.92,0,0,0-46.92-62.79A100.36,100.36,0,0,0,25.61,34.57,104.17,104.17,0,0,0,10.18,147.93a102.53,102.53,0,0,0,40,43.9,100.25,100.25,0,0,0,112.57-6.76,102.86,102.86,0,0,0,34.63-48.38A104.41,104.41,0,0,0,199.69,76.94Zm-30.72,36A69.47,69.47,0,0,1,147.53,154a67.38,67.38,0,0,1-86.11,4.85,69.17,69.17,0,0,1-25.79-38.4,7.48,7.48,0,0,1,.77-5.61,7.27,7.27,0,0,1,4.45-3.42L151,82.21a54,54,0,0,0-23-26.46A53,53,0,0,0,62.8,65.44,54.73,54.73,0,0,0,48.22,97.5a7.37,7.37,0,0,1-2.64,5,7.27,7.27,0,0,1-2.52,1.36,7.36,7.36,0,0,1-2.84.28,7.26,7.26,0,0,1-2.72-.85A7.35,7.35,0,0,1,34,98.89,7.39,7.39,0,0,1,33.7,96,69.52,69.52,0,0,1,53.89,53.54,67.4,67.4,0,0,1,141,46.69,69.18,69.18,0,0,1,167.4,85.51a7.46,7.46,0,0,1,.18,2.9,7.61,7.61,0,0,1-.93,2.74,7.36,7.36,0,0,1-1.91,2.17,7.14,7.14,0,0,1-2.58,1.26l0,0L52.07,123.73A54.08,54.08,0,0,0,74.61,149.9,52.93,52.93,0,0,0,139,141.76a54.63,54.63,0,0,0,15.51-31,7.44,7.44,0,0,1,.91-2.8,7.29,7.29,0,0,1,4.5-3.51,7.27,7.27,0,0,1,2.9-.16,7,7,0,0,1,2.72,1,7.22,7.22,0,0,1,2.13,2,7.3,7.3,0,0,1,1.2,2.68A7.46,7.46,0,0,1,169,112.92Z"/></g></g></svg>