<svg xmlns="http://www.w3.org/2000/svg" viewBox="0 0 883.98 205.96"><defs><style>.cls-1{fill:#6eefa9;fill-rule:evenodd;}.cls-2{fill:#fff;}</style></defs><g id="Layer_2" data-name="Layer 2"><g id="Layer_1-2" data-name="Layer 1"><path class="cls-1" d="M25.61,34.57A100.36,100.36,0,0,1,152.77,14.15a102.92,102.92,0,0,1,46.92,62.79,104.41,104.41,0,0,1-2.3,59.75,102.86,102.86,0,0,1-34.63,48.38,100.25,100.25,0,0,1-112.57,6.76,102.53,102.53,0,0,1-40-43.9A104.17,104.17,0,0,1,25.61,34.57Zm26.46,89.16L162.19,94.54l0,0a7.14,7.14,0,0,0,2.58-1.26,7.36,7.36,0,0,0,1.91-2.17,7.61,7.61,0,0,0,.93-2.74,7.46,7.46,0,0,0-.18-2.9A69.18,69.18,0,0,0,141,46.69a67.4,67.4,0,0,0-87.12,6.85A69.52,69.52,0,0,0,33.7,96,7.39,7.39,0,0,0,34,98.89a7.35,7.35,0,0,0,3.53,4.39,7.26,7.26,0,0,0,2.72.85,7.36,7.36,0,0,0,2.84-.28,7.27,7.27,0,0,0,2.52-1.36,7.37,7.37,0,0,0,2.64-5A54.73,54.73,0,0,1,62.8,65.44a53,53,0,0,1,65.12-9.69,54,54,0,0,1,23,26.46L40.85,111.4a7.27,7.27,0,0,0-4.45,3.42,7.48,7.48,0,0,0-.77,5.61,69.17,69.17,0,0,0,25.79,38.4A67.38,67.38,0,0,0,147.53,154,69.47,69.47,0,0,0,169,112.92a7.46,7.46,0,0,0-.08-2.94,7.3,7.3,0,0,0-1.2-2.68,7.22,7.22,0,0,0-2.13-2,7,7,0,0,0-2.72-1,7.21,7.21,0,0,0-5.5,1.45,7.36,7.36,0,0,0-1.9,2.22,7.44,7.44,0,0,0-.91,2.8,54.63,54.63,0,0,1-15.51,31,52.93,52.93,0,0,1-64.41,8.14A54.08,54.08,0,0,1,52.07,123.73Z"/><path class="cls-2" d="M412.92,74.27A26,26,0,0,0,401,71.59a24.8,24.8,0,0,0-11.87,2.82,26.59,26.59,0,0,0-9,7.9q-6.33,9-6.32,22.77t6.32,22.9a26.7,26.7,0,0,0,9,7.9A24.8,24.8,0,0,0,401,138.7q13.56,0,21-10.72l.13-.4q6.06-9.37,6.07-22.5t-6.2-22.5A23.59,23.59,0,0,0,412.92,74.27Zm2.83,39.51a21,21,0,0,1-3,7Q408.91,127,401,127a14.94,14.94,0,0,1-7-1.6,13,13,0,0,1-5-4.69q-3.75-5.9-3.75-15.67T389,89.41q4-6.16,12-6.16t11.88,6.16H413q3.75,5.9,3.75,15.67A34.81,34.81,0,0,1,415.75,113.78Z"/><path class="cls-2" d="M477.36,104.27q-3.74-2.67-13.68-5.09a12.61,12.61,0,0,1-1.29-.26q-.51-.14-1.29-.27l.39.13-3.1-.94a13.35,13.35,0,0,1-3.87-1.47,5.33,5.33,0,0,1-2.07-1.87,5.08,5.08,0,0,1-.77-2.82,7.58,7.58,0,0,1,2.71-5.89,13.44,13.44,0,0,1,3.1-1.74,9.31,9.31,0,0,1,3.87-.8,11.88,11.88,0,0,1,7.23,2.27,16,16,0,0,1,5.16,6.3,4.47,4.47,0,0,0,2.32,2.41,4,4,0,0,0,3.36.13h-.13l2.19-.94h-.13a3.61,3.61,0,0,0,2.71-2.27,6.17,6.17,0,0,0,.13-3.75q-6.7-15.81-22.84-15.81a20.78,20.78,0,0,0-14.46,5.23,19.11,19.11,0,0,0-4.77,6.69,19.77,19.77,0,0,0-1.68,8.17q0,9.38,7.1,14.33v-.13q3.61,2.69,12.9,4.69h-.13l3.1.67,3,.8a16.62,16.62,0,0,1,4.26,2.15,5,5,0,0,1,2.58,4.68q0,8.17-11.1,8.17-9.56,0-13.68-9.51l.13.14a4.48,4.48,0,0,0-2.32-2.41,3.68,3.68,0,0,0-3.36-.27l-2.07.8a4.88,4.88,0,0,0-2.58,2.68,5.17,5.17,0,0,0-.13,3.75q6.47,16.47,24,16.48,22.33,0,22.33-19.83Q484.46,109.23,477.36,104.27Z"/><path class="cls-2" d="M537.57,72.66h-2.19a4.16,4.16,0,0,0-2.71,1.08,5.75,5.75,0,0,0-1.68,2L516.15,117,501.43,75.75a6.87,6.87,0,0,0-1.93-2,4,4,0,0,0-2.58-1.08h-2.2a4.62,4.62,0,0,0-4,2,4.66,4.66,0,0,0-.39,4.42q4.91,13.93,9.81,27.59T510.08,134q-1.8,5.63-3.87,10.85t-3.87,10.71a4.9,4.9,0,0,0,.51,4.42,4.18,4.18,0,0,0,3.75,2h2.58a3.67,3.67,0,0,0,2.32-.94,6.4,6.4,0,0,0,1.94-2.14l28.65-79.83a5.21,5.21,0,0,0-.64-4.42A4.32,4.32,0,0,0,537.57,72.66Z"/><path class="cls-2" d="M361.13,115.66h.12l-1.8-.81a4.23,4.23,0,0,0-3.75.14,4.49,4.49,0,0,0-2.19,2.54l.13-.26Q349.77,127,340,127a15.41,15.41,0,0,1-7-1.6,15.58,15.58,0,0,1-5.17-4.69,25.82,25.82,0,0,1-2.84-6.83,35.92,35.92,0,0,1-1-8.84q0-10,3.87-15.67v.13A13.79,13.79,0,0,1,340,83.25q9.81,0,13.68,9.77l-.13-.13a5.28,5.28,0,0,0,2.19,2.41,4.69,4.69,0,0,0,3.49.27l1.94-.94a4.36,4.36,0,0,0,3-2.54,4.74,4.74,0,0,0-.25-4v.13Q357.12,71.6,340,71.59q-13.56,0-21,10.72A32.18,32.18,0,0,0,314,92.76a50.57,50.57,0,0,0-1.42,12.32A52.91,52.91,0,0,0,314,117.67,32.35,32.35,0,0,0,318.92,128q7.49,10.71,21,10.72,17.3,0,24-16.75v.14a4,4,0,0,0,0-3.89A4.78,4.78,0,0,0,361.13,115.66Z"/><path class="cls-2" d="M287.09,74.41a26.41,26.41,0,0,0-23.75,0,26.56,26.56,0,0,0-9,7.9q-6.33,9-6.33,22.77t6.33,22.9a26.67,26.67,0,0,0,9,7.9,24.87,24.87,0,0,0,11.88,2.82q17.43,0,24.14-16.75a4.41,4.41,0,0,0-.13-3.75,4.87,4.87,0,0,0-2.58-2.54,5,5,0,0,0-1.17-.54,5.33,5.33,0,0,0-1-.53,4.21,4.21,0,0,0-3.1.4,4.52,4.52,0,0,0-2.32,2.28Q284.9,127,275.22,127a14.9,14.9,0,0,1-6.71-1.47,14.14,14.14,0,0,1-5-4.69,16.06,16.06,0,0,1-2.32-4.55,44.62,44.62,0,0,1-1.42-5.63h38.08a4.42,4.42,0,0,0,3.35-1.34,4.94,4.94,0,0,0,1.29-3.35v-.93q0-13.26-6.32-22.64A26.16,26.16,0,0,0,287.09,74.41ZM259.73,99.18A24.59,24.59,0,0,1,261,93.69a19.76,19.76,0,0,1,2.45-4.42,15.21,15.21,0,0,1,5-4.42,14.35,14.35,0,0,1,6.71-1.6,13.89,13.89,0,0,1,6.71,1.6,13,13,0,0,1,5,4.56,22.26,22.26,0,0,1,3.75,9.77Z"/><path class="cls-2" d="M639.15,132.13l-.38-2.41a4.36,4.36,0,0,0-1.94-3.21,4.56,4.56,0,0,0-3.36-.81A20.34,20.34,0,0,1,627,127c-3,0-4.52-2.18-4.52-6.56v-36h11.36a4.32,4.32,0,0,0,3.23-1.34,4.73,4.73,0,0,0,1.42-3.35V77.35a4.27,4.27,0,0,0-1.42-3.21,4.13,4.13,0,0,0-3.23-1.48H622.5V62.08a4.65,4.65,0,0,0-1.29-3.35,4.25,4.25,0,0,0-3.35-1.47h-2.2A4.93,4.93,0,0,0,611,62.08V72.66h-8.14a4.37,4.37,0,0,0-3.22,1.48,4.24,4.24,0,0,0-1.42,3.21v2.41a4.68,4.68,0,0,0,1.42,3.35,4.57,4.57,0,0,0,3.22,1.34H611v36q0,18.21,15.87,18.22a33.88,33.88,0,0,0,4.13-.27,25.25,25.25,0,0,0,4.65-1.07,5.19,5.19,0,0,0,2.84-2,3.58,3.58,0,0,0,.64-3.35Z"/><path class="cls-2" d="M685.81,74.41a26.41,26.41,0,0,0-23.75,0,26.47,26.47,0,0,0-9,7.9q-6.33,9-6.33,22.77T653,128a26.58,26.58,0,0,0,9,7.9,24.87,24.87,0,0,0,11.88,2.82q17.41,0,24.13-16.75a4.34,4.34,0,0,0-.13-3.75,4.81,4.81,0,0,0-2.58-2.54,4.9,4.9,0,0,0-1.16-.54,5.33,5.33,0,0,0-1-.53,4.2,4.2,0,0,0-3.1.4,4.49,4.49,0,0,0-2.32,2.28Q683.61,127,673.94,127a15,15,0,0,1-6.72-1.47,14.12,14.12,0,0,1-5-4.69,15.81,15.81,0,0,1-2.32-4.55,43,43,0,0,1-1.42-5.63h38.07a4.43,4.43,0,0,0,3.36-1.34,4.94,4.94,0,0,0,1.29-3.35v-.93q0-13.26-6.32-22.64A26.16,26.16,0,0,0,685.81,74.41ZM658.45,99.18a24.05,24.05,0,0,1,1.29-5.49,19.37,19.37,0,0,1,2.45-4.42,15.18,15.18,0,0,1,5-4.42,14.42,14.42,0,0,1,6.72-1.6,13.89,13.89,0,0,1,6.71,1.6,13.06,13.06,0,0,1,5,4.56,22.14,22.14,0,0,1,3.74,9.77Z"/><path class="cls-2" d="M781.4,71.59a24.1,24.1,0,0,0-16,5.76h.13a18.83,18.83,0,0,0-1.93,1.74c-.61.63-1.17,1.25-1.68,1.88a16.79,16.79,0,0,0-7.36-7.1A22.71,22.71,0,0,0,744,71.59a22.41,22.41,0,0,0-8.14,1.61,25.93,25.93,0,0,0-7.48,4.15,5,5,0,0,0-1.42-3.21,3.9,3.9,0,0,0-3.23-1.48h-2.19a4.39,4.39,0,0,0-3.23,1.48,4.24,4.24,0,0,0-1.42,3.21v55.59a4.7,4.7,0,0,0,1.42,3.35,4.58,4.58,0,0,0,3.23,1.33h2.19a4.46,4.46,0,0,0,3.36-1.33,5,5,0,0,0,1.29-3.35V100.66q0-6.3,5-11.92T744,83.25q5.67,0,8.26,4.42h-.13a20.27,20.27,0,0,1,1.68,5.22,34.08,34.08,0,0,1,.64,7v33.09a4.7,4.7,0,0,0,1.42,3.35,4.58,4.58,0,0,0,3.23,1.33h2.19a4.46,4.46,0,0,0,3.36-1.33,5,5,0,0,0,1.29-3.35V100.12a14.58,14.58,0,0,1,1.29-5.89,21,21,0,0,1,3.48-5.63,18.88,18.88,0,0,1,5.17-3.88,11.47,11.47,0,0,1,5.55-1.47q10.58,0,10.58,16.2v33.49a5,5,0,0,0,1.29,3.35,4.75,4.75,0,0,0,3.36,1.33h2.06a4.46,4.46,0,0,0,3.36-1.33,5,5,0,0,0,1.29-3.35V99.45q0-11.65-4.26-18.75Q793,71.6,781.4,71.59Z"/><path class="cls-2" d="M586,104.27q-3.74-2.67-13.68-5.09a12.61,12.61,0,0,1-1.29-.26q-.52-.14-1.29-.27l.39.13-3.1-.94a13.35,13.35,0,0,1-3.87-1.47,5.26,5.26,0,0,1-2.07-1.87,5.08,5.08,0,0,1-.77-2.82,7.58,7.58,0,0,1,2.71-5.89,13.58,13.58,0,0,1,3.09-1.74,9.39,9.39,0,0,1,3.88-.8,11.83,11.83,0,0,1,7.22,2.27,16,16,0,0,1,5.17,6.3,4.47,4.47,0,0,0,2.32,2.41,4,4,0,0,0,3.36.13H588l2.19-.94H590a3.61,3.61,0,0,0,2.71-2.27,6.17,6.17,0,0,0,.13-3.75Q586.17,71.59,570,71.59a20.78,20.78,0,0,0-14.46,5.23,19.14,19.14,0,0,0-4.78,6.69,19.93,19.93,0,0,0-1.67,8.17q0,9.38,7.1,14.33v-.13c2.4,1.79,6.71,3.35,12.9,4.69H569l3.1.67,3,.8a16.94,16.94,0,0,1,4.26,2.15,5,5,0,0,1,2.58,4.68q0,8.17-11.1,8.17-9.55,0-13.68-9.51l.13.14a4.46,4.46,0,0,0-2.33-2.41,3.66,3.66,0,0,0-3.35-.27l-2.07.8a4.88,4.88,0,0,0-2.58,2.68,5.17,5.17,0,0,0-.13,3.75q6.47,16.47,24,16.48,22.34,0,22.33-19.83Q593.14,109.23,586,104.27Z"/><path class="cls-2" d="M882.69,126.78a4.37,4.37,0,0,0-3.48-1.48H837.13a21.73,21.73,0,0,1,2.71-4.42,41.34,41.34,0,0,1,3.62-4.28,63.45,63.45,0,0,1,7-6l3.87-3.08,4-3.08q10.46-8,15.1-13.66a33.74,33.74,0,0,0,7.36-20.9A25,25,0,0,0,854.94,44q-13.16,0-21.29,9.51a39.46,39.46,0,0,0-5.55,9.78,40.62,40.62,0,0,0-2.71,12.05,6,6,0,0,0,1.29,3.89,4.4,4.4,0,0,0,3.48,1.47l2.32.27a4.3,4.3,0,0,0,3.23-1.34,6.17,6.17,0,0,0,1.55-3.22,37.06,37.06,0,0,1,1.55-8.3,17.67,17.67,0,0,1,3.61-6.29q4.4-5.62,12.52-5.63A13.87,13.87,0,0,1,865,60.07v-.13a13.2,13.2,0,0,1,4,9.91,19.27,19.27,0,0,1-1.42,7.37,22.18,22.18,0,0,1-3.87,6.56A53.56,53.56,0,0,1,858.43,89q-3.49,2.94-8.65,6.69L846,98.38l-4.65,3.75q-2.19,2-4.26,4t-3.61,3.75v-.13a41.49,41.49,0,0,0-10.59,22.1,5.34,5.34,0,0,0,.91,4.28,5.11,5.11,0,0,0,3.87,1.47h51.5a4.4,4.4,0,0,0,3.48-1.47,5.1,5.1,0,0,0,1.29-3.48v-2.41A5.1,5.1,0,0,0,882.69,126.78Z"/></g></g></svg>