<svg xmlns="http://www.w3.org/2000/svg" viewBox="0 0 883.98 205.96"><defs><style>.cls-1{fill:#1875ca;fill-rule:evenodd;}</style></defs><g id="Layer_2" data-name="Layer 2"><g id="Layer_1-2" data-name="Layer 1"><path class="cls-1" d="M25.61,34.57A100.36,100.36,0,0,1,152.77,14.15a102.92,102.92,0,0,1,46.92,62.79,104.41,104.41,0,0,1-2.3,59.75,102.86,102.86,0,0,1-34.63,48.38,100.25,100.25,0,0,1-112.57,6.76,102.53,102.53,0,0,1-40-43.9A104.17,104.17,0,0,1,25.61,34.57Zm26.46,89.16L162.19,94.54l0,0a7.14,7.14,0,0,0,2.58-1.26,7.36,7.36,0,0,0,1.91-2.17,7.61,7.61,0,0,0,.93-2.74,7.46,7.46,0,0,0-.18-2.9A69.18,69.18,0,0,0,141,46.69a67.4,67.4,0,0,0-87.12,6.85A69.52,69.52,0,0,0,33.7,96,7.39,7.39,0,0,0,34,98.89a7.35,7.35,0,0,0,3.53,4.39,7.26,7.26,0,0,0,2.72.85,7.36,7.36,0,0,0,2.84-.28,7.27,7.27,0,0,0,2.52-1.36,7.37,7.37,0,0,0,2.64-5A54.73,54.73,0,0,1,62.8,65.44a53,53,0,0,1,65.12-9.69,54,54,0,0,1,23,26.46L40.85,111.4a7.27,7.27,0,0,0-4.45,3.42,7.48,7.48,0,0,0-.77,5.61,69.17,69.17,0,0,0,25.79,38.4A67.38,67.38,0,0,0,147.53,154,69.47,69.47,0,0,0,169,112.92a7.46,7.46,0,0,0-.08-2.94,7.3,7.3,0,0,0-1.2-2.68,7.22,7.22,0,0,0-2.13-2,7,7,0,0,0-2.72-1,7.21,7.21,0,0,0-5.5,1.45,7.36,7.36,0,0,0-1.9,2.22,7.44,7.44,0,0,0-.91,2.8,54.63,54.63,0,0,1-15.51,31,52.93,52.93,0,0,1-64.41,8.14A54.08,54.08,0,0,1,52.07,123.73Zm830.62,12.42a5.1,5.1,0,0,0,1.29-3.48v-2.41a5.1,5.1,0,0,0-1.29-3.48,4.37,4.37,0,0,0-3.48-1.48H837.13a21.73,21.73,0,0,1,2.71-4.42,41.34,41.34,0,0,1,3.62-4.28,63.45,63.45,0,0,1,7-6l3.87-3.08,4-3.08q10.46-8,15.1-13.66a33.74,33.74,0,0,0,7.36-20.9A25,25,0,0,0,854.94,44q-13.16,0-21.29,9.51a39.46,39.46,0,0,0-5.55,9.78,40.62,40.62,0,0,0-2.71,12.05,6,6,0,0,0,1.29,3.89,4.4,4.4,0,0,0,3.48,1.47l2.32.27a4.3,4.3,0,0,0,3.23-1.34,6.17,6.17,0,0,0,1.55-3.22,37.06,37.06,0,0,1,1.55-8.3,17.67,17.67,0,0,1,3.61-6.29q4.4-5.62,12.52-5.63A13.87,13.87,0,0,1,865,60.07v-.13a13.2,13.2,0,0,1,4,9.91,19.27,19.27,0,0,1-1.42,7.37,22.18,22.18,0,0,1-3.87,6.56A53.56,53.56,0,0,1,858.43,89q-3.49,2.94-8.65,6.69L846,98.38l-4.65,3.75q-2.19,2-4.26,4t-3.61,3.75v-.13a41.49,41.49,0,0,0-10.59,22.1,5.34,5.34,0,0,0,.91,4.28,5.11,5.11,0,0,0,3.87,1.47h51.5A4.4,4.4,0,0,0,882.69,136.15Zm-243.54-4V132a3.58,3.58,0,0,1-.64,3.35,5.19,5.19,0,0,1-2.84,2,25.25,25.25,0,0,1-4.65,1.07,33.88,33.88,0,0,1-4.13.27Q611,138.7,611,120.48v-36h-8.14a4.57,4.57,0,0,1-3.22-1.34,4.68,4.68,0,0,1-1.42-3.35V77.35a4.24,4.24,0,0,1,1.42-3.21,4.37,4.37,0,0,1,3.22-1.48H611V62.08a4.93,4.93,0,0,1,4.64-4.82h2.2a4.25,4.25,0,0,1,3.35,1.47,4.65,4.65,0,0,1,1.29,3.35V72.66h11.36a4.13,4.13,0,0,1,3.23,1.48,4.27,4.27,0,0,1,1.42,3.21v2.41a4.73,4.73,0,0,1-1.42,3.35,4.32,4.32,0,0,1-3.23,1.34H622.5v36c0,4.38,1.51,6.56,4.52,6.56a20.34,20.34,0,0,0,6.45-1.34,4.56,4.56,0,0,1,3.36.81,4.36,4.36,0,0,1,1.94,3.21Zm-338-22.77a4.94,4.94,0,0,0,1.29-3.35v-.93q0-13.26-6.32-22.64a26.16,26.16,0,0,0-9-8,26.41,26.41,0,0,0-23.75,0,26.56,26.56,0,0,0-9,7.9q-6.33,9-6.33,22.77t6.33,22.9a26.67,26.67,0,0,0,9,7.9,24.87,24.87,0,0,0,11.88,2.82q17.43,0,24.14-16.75a4.41,4.41,0,0,0-.13-3.75,4.87,4.87,0,0,0-2.58-2.54,5,5,0,0,0-1.17-.54,5.33,5.33,0,0,0-1-.53,4.21,4.21,0,0,0-3.1.4,4.52,4.52,0,0,0-2.32,2.28Q284.9,127,275.22,127a14.9,14.9,0,0,1-6.71-1.47,14.14,14.14,0,0,1-5-4.69,16.06,16.06,0,0,1-2.32-4.55,44.62,44.62,0,0,1-1.42-5.63h38.08A4.42,4.42,0,0,0,301.16,109.36Zm-14.2-20a22.26,22.26,0,0,1,3.75,9.77h-31A24.59,24.59,0,0,1,261,93.69a19.76,19.76,0,0,1,2.45-4.42,15.21,15.21,0,0,1,5-4.42,14.35,14.35,0,0,1,6.71-1.6,13.89,13.89,0,0,1,6.71,1.6A13,13,0,0,1,287,89.41Zm74.17,26.25h.12l-1.8-.81a4.23,4.23,0,0,0-3.75.14,4.49,4.49,0,0,0-2.19,2.54l.13-.26Q349.77,127,340,127a15.41,15.41,0,0,1-7-1.6,15.58,15.58,0,0,1-5.17-4.69,25.82,25.82,0,0,1-2.84-6.83,35.92,35.92,0,0,1-1-8.84q0-10,3.87-15.67v.13A13.79,13.79,0,0,1,340,83.25q9.81,0,13.68,9.77l-.13-.13a5.28,5.28,0,0,0,2.19,2.41,4.69,4.69,0,0,0,3.49.27l1.94-.94a4.36,4.36,0,0,0,3-2.54,4.74,4.74,0,0,0-.25-4v.13Q357.12,71.6,340,71.59q-13.56,0-21,10.72A32.18,32.18,0,0,0,314,92.76a50.57,50.57,0,0,0-1.42,12.32A52.91,52.91,0,0,0,314,117.67,32.35,32.35,0,0,0,318.92,128q7.49,10.71,21,10.72,17.3,0,24-16.75v.14a4,4,0,0,0,0-3.89A4.78,4.78,0,0,0,361.13,115.66Zm61.08,11.92-.13.4q-7.49,10.71-21,10.72a24.8,24.8,0,0,1-11.87-2.82,26.7,26.7,0,0,1-9-7.9q-6.33-9.11-6.32-22.9t6.32-22.77a26.59,26.59,0,0,1,9-7.9A24.8,24.8,0,0,1,401,71.59a26,26,0,0,1,11.88,2.68,23.59,23.59,0,0,1,9.16,8.31q6.19,9.24,6.2,22.5T422.21,127.58Zm-9.29-38.17q-4-6.16-11.88-6.16t-12,6.16q-3.75,5.76-3.75,15.67T389,120.75a13,13,0,0,0,5,4.69,14.94,14.94,0,0,0,7,1.6q7.88,0,11.75-6.29a21,21,0,0,0,3-7,34.81,34.81,0,0,0,1-8.7q0-9.78-3.75-15.67Zm66.51,5h-.13l2.19-.94h-.13a3.61,3.61,0,0,0,2.71-2.27,6.17,6.17,0,0,0,.13-3.75q-6.7-15.81-22.84-15.81a20.78,20.78,0,0,0-14.46,5.23,19.11,19.11,0,0,0-4.77,6.69,19.77,19.77,0,0,0-1.68,8.17q0,9.38,7.1,14.33v-.13q3.61,2.69,12.9,4.69h-.13l3.1.67,3,.8a16.62,16.62,0,0,1,4.26,2.15,5,5,0,0,1,2.58,4.68q0,8.17-11.1,8.17-9.56,0-13.68-9.51l.13.14a4.48,4.48,0,0,0-2.32-2.41,3.68,3.68,0,0,0-3.36-.27l-2.07.8a4.88,4.88,0,0,0-2.58,2.68,5.17,5.17,0,0,0-.13,3.75q6.47,16.47,24,16.48,22.33,0,22.33-19.83,0-9.65-7.1-14.6-3.74-2.67-13.68-5.09a12.61,12.61,0,0,1-1.29-.26q-.51-.14-1.29-.27l.39.13-3.1-.94a13.35,13.35,0,0,1-3.87-1.47,5.33,5.33,0,0,1-2.07-1.87,5.08,5.08,0,0,1-.77-2.82,7.58,7.58,0,0,1,2.71-5.89,13.44,13.44,0,0,1,3.1-1.74,9.31,9.31,0,0,1,3.87-.8,11.88,11.88,0,0,1,7.23,2.27,16,16,0,0,1,5.16,6.3,4.47,4.47,0,0,0,2.32,2.41A4,4,0,0,0,479.43,94.36Zm58.14-21.7a4.32,4.32,0,0,1,3.88,2,5.21,5.21,0,0,1,.64,4.42l-28.65,79.83a6.4,6.4,0,0,1-1.94,2.14,3.67,3.67,0,0,1-2.32.94H506.6a4.18,4.18,0,0,1-3.75-2,4.9,4.9,0,0,1-.51-4.42q1.8-5.49,3.87-10.71T510.08,134q-4.9-13.8-9.94-27.33t-9.81-27.59a4.66,4.66,0,0,1,.39-4.42,4.62,4.62,0,0,1,4-2h2.2a4,4,0,0,1,2.58,1.08,6.87,6.87,0,0,1,1.93,2L516.15,117,531,75.75a5.75,5.75,0,0,1,1.68-2,4.16,4.16,0,0,1,2.71-1.08Zm50.54,21.7H588l2.19-.94H590a3.61,3.61,0,0,0,2.71-2.27,6.17,6.17,0,0,0,.13-3.75Q586.17,71.59,570,71.59a20.78,20.78,0,0,0-14.46,5.23,19.14,19.14,0,0,0-4.78,6.69,19.93,19.93,0,0,0-1.67,8.17q0,9.38,7.1,14.33v-.13c2.4,1.79,6.71,3.35,12.9,4.69H569l3.1.67,3,.8a16.94,16.94,0,0,1,4.26,2.15,5,5,0,0,1,2.58,4.68q0,8.17-11.1,8.17-9.55,0-13.68-9.51l.13.14a4.46,4.46,0,0,0-2.33-2.41,3.66,3.66,0,0,0-3.35-.27l-2.07.8a4.88,4.88,0,0,0-2.58,2.68,5.17,5.17,0,0,0-.13,3.75q6.47,16.47,24,16.48,22.34,0,22.33-19.83,0-9.65-7.1-14.6-3.74-2.67-13.68-5.09a12.61,12.61,0,0,1-1.29-.26q-.52-.14-1.29-.27l.39.13-3.1-.94a13.35,13.35,0,0,1-3.87-1.47,5.26,5.26,0,0,1-2.07-1.87,5.08,5.08,0,0,1-.77-2.82,7.58,7.58,0,0,1,2.71-5.89,13.58,13.58,0,0,1,3.09-1.74,9.39,9.39,0,0,1,3.88-.8,11.83,11.83,0,0,1,7.22,2.27,16,16,0,0,1,5.17,6.3,4.47,4.47,0,0,0,2.32,2.41A4,4,0,0,0,588.11,94.36Zm111.77,15a4.94,4.94,0,0,0,1.29-3.35v-.93q0-13.26-6.32-22.64a26.16,26.16,0,0,0-9-8,26.41,26.41,0,0,0-23.75,0,26.47,26.47,0,0,0-9,7.9q-6.33,9-6.33,22.77T653,128a26.58,26.58,0,0,0,9,7.9,24.87,24.87,0,0,0,11.88,2.82q17.41,0,24.13-16.75a4.34,4.34,0,0,0-.13-3.75,4.81,4.81,0,0,0-2.58-2.54,4.9,4.9,0,0,0-1.16-.54,5.33,5.33,0,0,0-1-.53,4.2,4.2,0,0,0-3.1.4,4.49,4.49,0,0,0-2.32,2.28Q683.61,127,673.94,127a15,15,0,0,1-6.72-1.47,14.12,14.12,0,0,1-5-4.69,15.81,15.81,0,0,1-2.32-4.55,43,43,0,0,1-1.42-5.63h38.07A4.43,4.43,0,0,0,699.88,109.36Zm-14.2-20a22.14,22.14,0,0,1,3.74,9.77h-31a24.05,24.05,0,0,1,1.29-5.49,19.37,19.37,0,0,1,2.45-4.42,15.18,15.18,0,0,1,5-4.42,14.42,14.42,0,0,1,6.72-1.6,13.89,13.89,0,0,1,6.71,1.6A13.06,13.06,0,0,1,685.68,89.41Zm117.66,43.53a5,5,0,0,1-1.29,3.35,4.46,4.46,0,0,1-3.36,1.33h-2.06a4.75,4.75,0,0,1-3.36-1.33,5,5,0,0,1-1.29-3.35V99.45q0-16.2-10.58-16.2a11.47,11.47,0,0,0-5.55,1.47,18.88,18.88,0,0,0-5.17,3.88,21,21,0,0,0-3.48,5.63,14.58,14.58,0,0,0-1.29,5.89v32.82a5,5,0,0,1-1.29,3.35,4.46,4.46,0,0,1-3.36,1.33h-2.19a4.58,4.58,0,0,1-3.23-1.33,4.7,4.7,0,0,1-1.42-3.35V99.85a34.08,34.08,0,0,0-.64-7,20.27,20.27,0,0,0-1.68-5.22h.13q-2.58-4.42-8.26-4.42t-10.59,5.49q-5,5.63-5,11.92v32.28a5,5,0,0,1-1.29,3.35,4.46,4.46,0,0,1-3.36,1.33h-2.19a4.58,4.58,0,0,1-3.23-1.33,4.7,4.7,0,0,1-1.42-3.35V77.35a4.24,4.24,0,0,1,1.42-3.21,4.39,4.39,0,0,1,3.23-1.48h2.19a3.9,3.9,0,0,1,3.23,1.48,5,5,0,0,1,1.42,3.21,25.93,25.93,0,0,1,7.48-4.15A22.41,22.41,0,0,1,744,71.59a22.71,22.71,0,0,1,10.58,2.28,16.79,16.79,0,0,1,7.36,7.1c.51-.63,1.07-1.25,1.68-1.88a18.83,18.83,0,0,1,1.93-1.74h-.13a24.1,24.1,0,0,1,16-5.76q11.61,0,17.68,9.11,4.26,7.1,4.26,18.75Z"/></g></g></svg>